<svg width="512" height="512" viewBox="0 0 512 512" fill="none" xmlns="http://www.w3.org/2000/svg">
  <!-- Dark background matching Sokudo theme -->
  <rect width="512" height="512" fill="#0a0a0b" rx="96"/>

  <!-- Stylized "S" representing speed/Sokudo -->
  <path d="M 320 140
           C 360 140, 380 160, 380 190
           C 380 220, 360 240, 320 240
           L 200 240
           C 160 240, 140 260, 140 290
           C 140 320, 160 340, 200 340
           L 280 340
           L 260 380
           L 200 380
           C 140 380, 100 340, 100 290
           C 100 240, 140 200, 200 200
           L 320 200
           C 360 200, 380 180, 380 150
           C 380 120, 360 100, 320 100
           L 240 100
           L 260 140
           Z"
        fill="#10b981" stroke="none"/>

  <!-- Keyboard-style accent lines -->
  <rect x="160" y="420" width="40" height="4" fill="#6b7280" rx="2"/>
  <rect x="210" y="420" width="40" height="4" fill="#6b7280" rx="2"/>
  <rect x="260" y="420" width="40" height="4" fill="#6b7280" rx="2"/>
  <rect x="310" y="420" width="40" height="4" fill="#6b7280" rx="2"/>
</svg>
